<mxfile host="app.diagrams.net" modified="2023-09-25T04:06:24.229Z" agent="Mozilla/5.0 (Windows NT 10.0; Win64; x64) AppleWebKit/537.36 (KHTML, like Gecko) Chrome/116.0.0.0 Safari/537.36 OPR/102.0.0.0" etag="7GrJwrR5bWrFiLDMl1i4" version="21.8.2" type="github">
  <diagram name="Page-1" id="SuahV329DLeM_8vlrauv">
    <mxGraphModel dx="1679" dy="963" grid="1" gridSize="10" guides="1" tooltips="1" connect="1" arrows="1" fold="1" page="1" pageScale="1" pageWidth="850" pageHeight="1100" math="0" shadow="0">
      <root>
        <mxCell id="0" />
        <mxCell id="1" parent="0" />
        <mxCell id="xIM4vj718ztc52U9CI9m-3" value="" style="edgeStyle=orthogonalEdgeStyle;rounded=0;orthogonalLoop=1;jettySize=auto;html=1;" edge="1" parent="1" source="xIM4vj718ztc52U9CI9m-1" target="xIM4vj718ztc52U9CI9m-2">
          <mxGeometry relative="1" as="geometry" />
        </mxCell>
        <mxCell id="xIM4vj718ztc52U9CI9m-1" value="Start" style="strokeWidth=2;html=1;shape=mxgraph.flowchart.terminator;whiteSpace=wrap;" vertex="1" parent="1">
          <mxGeometry x="375" y="40" width="100" height="60" as="geometry" />
        </mxCell>
        <mxCell id="xIM4vj718ztc52U9CI9m-5" value="" style="edgeStyle=orthogonalEdgeStyle;rounded=0;orthogonalLoop=1;jettySize=auto;html=1;" edge="1" parent="1" source="xIM4vj718ztc52U9CI9m-2" target="xIM4vj718ztc52U9CI9m-4">
          <mxGeometry relative="1" as="geometry" />
        </mxCell>
        <mxCell id="xIM4vj718ztc52U9CI9m-2" value="float&amp;nbsp;suhucelcius,&amp;nbsp;suhuFahrenhelt" style="shape=hexagon;perimeter=hexagonPerimeter2;whiteSpace=wrap;html=1;fixedSize=1;strokeWidth=2;" vertex="1" parent="1">
          <mxGeometry x="268" y="160" width="315" height="80" as="geometry" />
        </mxCell>
        <mxCell id="xIM4vj718ztc52U9CI9m-7" value="" style="edgeStyle=orthogonalEdgeStyle;rounded=0;orthogonalLoop=1;jettySize=auto;html=1;" edge="1" parent="1" source="xIM4vj718ztc52U9CI9m-4" target="xIM4vj718ztc52U9CI9m-6">
          <mxGeometry relative="1" as="geometry" />
        </mxCell>
        <mxCell id="xIM4vj718ztc52U9CI9m-4" value="Input suhuCelcius" style="shape=parallelogram;perimeter=parallelogramPerimeter;whiteSpace=wrap;html=1;fixedSize=1;strokeWidth=2;" vertex="1" parent="1">
          <mxGeometry x="283" y="310" width="284.5" height="60" as="geometry" />
        </mxCell>
        <mxCell id="xIM4vj718ztc52U9CI9m-9" value="" style="edgeStyle=orthogonalEdgeStyle;rounded=0;orthogonalLoop=1;jettySize=auto;html=1;" edge="1" parent="1" source="xIM4vj718ztc52U9CI9m-6" target="xIM4vj718ztc52U9CI9m-8">
          <mxGeometry relative="1" as="geometry" />
        </mxCell>
        <mxCell id="xIM4vj718ztc52U9CI9m-6" value="&lt;div&gt;suhuFahrenhelt = 9 / 5 * suhucelcius + 32&lt;/div&gt;" style="rounded=1;whiteSpace=wrap;html=1;strokeWidth=2;" vertex="1" parent="1">
          <mxGeometry x="238" y="450" width="374.75" height="60" as="geometry" />
        </mxCell>
        <mxCell id="xIM4vj718ztc52U9CI9m-11" value="" style="edgeStyle=orthogonalEdgeStyle;rounded=0;orthogonalLoop=1;jettySize=auto;html=1;" edge="1" parent="1" source="xIM4vj718ztc52U9CI9m-8" target="xIM4vj718ztc52U9CI9m-10">
          <mxGeometry relative="1" as="geometry" />
        </mxCell>
        <mxCell id="xIM4vj718ztc52U9CI9m-8" value="print(suhuFahrenhelt)" style="shape=parallelogram;perimeter=parallelogramPerimeter;whiteSpace=wrap;html=1;fixedSize=1;rounded=1;strokeWidth=2;" vertex="1" parent="1">
          <mxGeometry x="233.18" y="590" width="384.63" height="60" as="geometry" />
        </mxCell>
        <mxCell id="xIM4vj718ztc52U9CI9m-10" value="End" style="strokeWidth=2;html=1;shape=mxgraph.flowchart.terminator;whiteSpace=wrap;" vertex="1" parent="1">
          <mxGeometry x="375.5" y="710" width="100" height="60" as="geometry" />
        </mxCell>
      </root>
    </mxGraphModel>
  </diagram>
</mxfile>
